<?xml version="1.0" encoding="UTF-8"?><svg id="Calque_2" xmlns="http://www.w3.org/2000/svg" viewBox="0 0 238.31 22.59"><defs><style>.cls-1{fill:#1d1d1b;stroke-width:0px;}</style></defs><g id="Calque_1-2"><path class="cls-1" d="m17.41,22.07h-7.49L0,.76h7.21l3.32,7.73,3.35,7.76,3.32-7.76,3.32-7.73h6.82l-9.92,21.31Z"/><path class="cls-1" d="m28.19,0h6.33v3.87h-6.33V0Zm0,5.08h6.33v16.99h-6.33V5.08Z"/><path class="cls-1" d="m35.28,5.08h6.76l2.37,5.72,2.31,5.66,2.37-5.66,2.37-5.72h6.36l-7.85,16.99h-6.85l-7.85-16.99Z"/><path class="cls-1" d="m58.63,0h6.33v3.87h-6.33V0Zm0,5.08h6.33v16.99h-6.33V5.08Z"/><path class="cls-1" d="m66.43,13.58c0-5.42,4.38-9.01,10.38-9.01s10.26,3.47,10.26,9.38v.37h-14.49c.24,2.8,1.86,4.26,4.29,4.26,1.92,0,3.32-.94,3.96-2.86h6.06c-1.07,4.2-4.84,6.88-10.11,6.88-6.06,0-10.35-3.56-10.35-9.01Zm6.39-2.07h7.98c-.64-1.98-2.1-3.04-3.99-3.04-2.01,0-3.44,1.1-3.99,3.04Z"/><path class="cls-1" d="m88.5,5.08h6.39v2.16c1.43-1.61,3.5-2.56,6-2.56,4.23,0,7.12,2.56,7.12,6.64v10.75h-6.36v-9.89c0-2.13-1.37-3.23-3.32-3.23-1.46,0-2.68.61-3.44,1.55v11.57h-6.39V5.08Z"/><path class="cls-1" d="m116.66,5.08h6.39v2.16c1.43-1.61,3.5-2.56,6-2.56,4.23,0,7.12,2.56,7.12,6.64v10.75h-6.36v-9.89c0-2.13-1.37-3.23-3.32-3.23-1.46,0-2.68.61-3.44,1.55v11.57h-6.39V5.08Z"/><path class="cls-1" d="m138,0h6.33v3.87h-6.33V0Zm0,5.08h6.33v16.99h-6.33V5.08Z"/><path class="cls-1" d="m145.79,13.58c0-5.51,4.35-9.01,10.44-9.01,5.54,0,9.59,2.92,10.23,7.64h-5.97c-.46-2.25-2.01-3.47-4.2-3.47-2.53,0-4.26,1.71-4.26,4.81s1.74,4.87,4.26,4.87c2.22,0,3.84-1.28,4.23-3.68h5.94c-.52,4.84-4.54,7.85-10.23,7.85-6.12,0-10.44-3.47-10.44-9.01Z"/><path class="cls-1" d="m167.56,13.58c0-5.48,4.32-9.01,10.62-9.01s10.59,3.53,10.59,9.01-4.29,9.01-10.59,9.01-10.62-3.5-10.62-9.01Zm15.01,0c0-3.13-1.73-4.81-4.38-4.81s-4.38,1.67-4.38,4.81,1.74,4.84,4.38,4.84,4.38-1.71,4.38-4.84Z"/><path class="cls-1" d="m190.24.76h6.33v21.31h-6.33V.76Z"/><path class="cls-1" d="m197.97,17.62c0-3.99,4.9-4.66,9.01-5.51,3.23-.67,4.11-1.28,4.11-2.16,0-.82-1-1.46-2.89-1.46-2.25,0-3.65,1.1-4.05,2.71h-5.78c.79-3.87,4.72-6.58,10.08-6.58,5.78,0,8.95,2.44,8.95,6.91v10.53h-6.27v-1.92c-1.55,1.52-3.77,2.28-6.45,2.28-4.05,0-6.7-1.95-6.7-4.81Zm8.71,1.28c1.64,0,3.38-.58,4.44-1.61v-3.23c-.82.46-2.01.7-3.29,1.04-2.13.52-3.74.91-3.74,2.19,0,.91.91,1.61,2.59,1.61Z"/><path class="cls-1" d="m218.76,16.19h5.88c.46,1.77,2.01,2.71,4.2,2.71,2.44,0,3.38-.67,3.38-1.52,0-1.25-2.01-1.55-4.51-1.89-3.87-.52-8.86-1.07-8.86-5.24,0-3.35,3.44-5.63,8.92-5.63s9.35,2.19,10.29,6.09h-5.78c-.64-1.7-2.1-2.44-4.38-2.44-2.01,0-2.95.64-2.95,1.37,0,1.16,1.92,1.46,4.29,1.77,3.93.52,9.07,1.07,9.07,5.36,0,3.29-3.56,5.75-9.38,5.75-5.33,0-9.25-2.13-10.17-6.33Z"/></g></svg>